<?xml version="1.0" encoding="UTF-8" standalone="no"?>
<!-- Created with Inkscape (http://www.inkscape.org/) -->

<svg
   xmlns:dc="http://purl.org/dc/elements/1.1/"
   xmlns:cc="http://creativecommons.org/ns#"
   xmlns:rdf="http://www.w3.org/1999/02/22-rdf-syntax-ns#"
   xmlns:svg="http://www.w3.org/2000/svg"
   xmlns="http://www.w3.org/2000/svg"
   xmlns:sodipodi="http://sodipodi.sourceforge.net/DTD/sodipodi-0.dtd"
   xmlns:inkscape="http://www.inkscape.org/namespaces/inkscape"
   width="744.09448819"
   height="1052.3622047"
   id="svg2"
   version="1.1"
   inkscape:version="0.48.2 r9819"
   sodipodi:docname="scale_plan.svg">
  <defs
     id="defs4" />
  <sodipodi:namedview
     id="base"
     pagecolor="#ffffff"
     bordercolor="#666666"
     borderopacity="1.0"
     inkscape:pageopacity="0.0"
     inkscape:pageshadow="2"
     inkscape:zoom="1.2780635"
     inkscape:cx="246.85784"
     inkscape:cy="147.87297"
     inkscape:document-units="px"
     inkscape:current-layer="layer1"
     showgrid="true"
     inkscape:window-width="1436"
     inkscape:window-height="856"
     inkscape:window-x="0"
     inkscape:window-y="0"
     inkscape:window-maximized="0">
    <inkscape:grid
       type="xygrid"
       id="grid2985"
       empspacing="5"
       visible="true"
       enabled="true"
       snapvisiblegridlinesonly="true"
       units="mm"
       spacingx="1mm"
       spacingy="1mm" />
  </sodipodi:namedview>
  <metadata
     id="metadata7">
    <rdf:RDF>
      <cc:Work
         rdf:about="">
        <dc:format>image/svg+xml</dc:format>
        <dc:type
           rdf:resource="http://purl.org/dc/dcmitype/StillImage" />
        <dc:title />
      </cc:Work>
    </rdf:RDF>
  </metadata>
  <g
     inkscape:label="Layer 1"
     inkscape:groupmode="layer"
     id="layer1">
    <path
       transform="matrix(2.0410247,0,0,2.0409997,-233.71822,295.30993)"
       d="m 354.3307,272.83463 a 141.73228,141.73228 0 1 1 -283.464565,0 141.73228,141.73228 0 1 1 283.464565,0 z"
       sodipodi:ry="141.73228"
       sodipodi:rx="141.73228"
       sodipodi:cy="272.83463"
       sodipodi:cx="212.59842"
       id="path3015"
       style="fill:none;fill-opacity:1;stroke:#000000;stroke-width:0.61244122000000001;stroke-linecap:butt;stroke-miterlimit:4;stroke-opacity:1;stroke-dasharray:1.22488244000000002, 0.61244122000000001;stroke-dashoffset:0"
       sodipodi:type="arc" />
    <path
       sodipodi:type="arc"
       style="fill:#ffffff;fill-opacity:1;stroke:#000000;stroke-width:0.67865064;stroke-linecap:butt;stroke-miterlimit:4;stroke-opacity:1;stroke-dasharray:1.35730128,0.67865064;stroke-dashoffset:0"
       id="path3013"
       sodipodi:cx="212.59842"
       sodipodi:cy="272.83463"
       sodipodi:rx="141.73228"
       sodipodi:ry="141.73228"
       d="m 354.3307,272.83463 a 141.73228,141.73228 0 1 1 -283.464565,0 141.73228,141.73228 0 1 1 283.464565,0 z"
       transform="matrix(1.8419027,0,0,1.8418778,-191.38522,349.63729)" />
    <path
       sodipodi:type="arc"
       style="fill:#e3ffe0;fill-opacity:1;stroke:#000000;stroke-width:1.25000000000000000;stroke-linecap:butt;stroke-miterlimit:4;stroke-opacity:1;stroke-dasharray:none"
       id="path2987"
       sodipodi:cx="212.59842"
       sodipodi:cy="272.83463"
       sodipodi:rx="141.73228"
       sodipodi:ry="141.73228"
       d="m 354.3307,272.83463 a 141.73228,141.73228 0 1 1 -283.464565,0 141.73228,141.73228 0 1 1 283.464565,0 z"
       transform="matrix(1.4062986,0,0,1.4062986,-98.78001,468.47839)" />
    <path
       transform="matrix(1.344073,0,0,1.344073,-85.550945,485.45568)"
       d="m 354.3307,272.83463 a 141.73228,141.73228 0 1 1 -283.464565,0 141.73228,141.73228 0 1 1 283.464565,0 z"
       sodipodi:ry="141.73228"
       sodipodi:rx="141.73228"
       sodipodi:cy="272.83463"
       sodipodi:cx="212.59842"
       id="path3011"
       style="fill:none;fill-opacity:1;stroke:#000000;stroke-width:1.24993211;stroke-linecap:butt;stroke-miterlimit:4;stroke-opacity:1;stroke-dasharray:14.99918531,1.24993211;stroke-dashoffset:0"
       sodipodi:type="arc" />
    <path
       transform="matrix(0.49780482,0,0,0.49780482,94.364333,716.34694)"
       d="m 354.3307,272.83463 a 141.73228,141.73228 0 1 1 -283.464565,0 141.73228,141.73228 0 1 1 283.464565,0 z"
       sodipodi:ry="141.73228"
       sodipodi:rx="141.73228"
       sodipodi:cy="272.83463"
       sodipodi:cx="212.59842"
       id="path3804"
       style="fill:#ffffff;fill-opacity:1;stroke:#000000;stroke-width:1.25;stroke-linecap:butt;stroke-miterlimit:4;stroke-opacity:1;stroke-dasharray:none"
       sodipodi:type="arc" />
    <path
       sodipodi:type="arc"
       style="fill:none;stroke:#000000;stroke-width:0.61244124;stroke-linecap:butt;stroke-miterlimit:4;stroke-opacity:1;stroke-dasharray:none;stroke-dashoffset:0"
       id="path3824"
       sodipodi:cx="212.59842"
       sodipodi:cy="272.83463"
       sodipodi:rx="141.73228"
       sodipodi:ry="141.73228"
       d="m 354.3307,272.83463 a 141.73228,141.73228 0 1 1 -283.464565,0 141.73228,141.73228 0 1 1 283.464565,0 z"
       transform="matrix(1.8210655,0,0,1.8210655,-186.95879,355.3156)" />
    <path
       transform="matrix(2.195257,0,0,2.195257,-266.51132,253.22321)"
       d="m 354.3307,272.83463 a 141.73228,141.73228 0 1 1 -283.464565,0 141.73228,141.73228 0 1 1 283.464565,0 z"
       sodipodi:ry="141.73228"
       sodipodi:rx="141.73228"
       sodipodi:cy="272.83463"
       sodipodi:cx="212.59842"
       id="path3826"
       style="fill:none;stroke:#000000;stroke-width:0.61244124;stroke-linecap:butt;stroke-miterlimit:4;stroke-opacity:1;stroke-dasharray:none;stroke-dashoffset:0"
       sodipodi:type="arc" />
  </g>
</svg>
